<svg xmlns="http://www.w3.org/2000/svg" width="120.32" height="20.66" viewBox="0 0 120.32 20.66"><defs><style>.cls-1{fill:#fff;}</style></defs><title>GlobalAsset 1</title><g id="Layer_2" data-name="Layer 2"><g id="Layer_1-2" data-name="Layer 1"><path class="cls-1" d="M4.8,20.66C2.92,19.22,6.87,3.63,10.43,3a33,33,0,0,0-4,9.31c8-5.12,9.33-9.63,7.4-10.86C10-1-2.86,6.52,1.43,9c.12.05,0,.28-.17.23A1.83,1.83,0,0,1,0,7.44C0,3.12,10.18-.8,13.68.67,18,2.46,14,8.1,9.21,11.44c-1,.66-2,1.24-3,1.84C5.68,15.32,4.92,19.41,4.8,20.66Z"/><path class="cls-1" d="M14.44,16.69v-.05c.26-1.09.64-3,1-4.33a.69.69,0,0,1,.52-.2c.23,0,.43.09.43.24v.05c-.06.32-.59,2.12-.69,2.58l0,.1c.35-.71,1.83-3.45,2.87-3.81a.74.74,0,0,1,.28-.06c.85,0,.81,1.77,1.62,1.77a1.74,1.74,0,0,0,1-.59.19.19,0,0,1,.13-.07c.06,0,.09.08.07.16a.22.22,0,0,1-.12.16c-.78.78-1.3,1-1.68,1-.88,0-.93-1.54-1.55-1.54a.49.49,0,0,0-.18,0c-.91.36-2.31,3.3-2.69,4.5-.12.33-.32.71-.67.71S14.33,17.17,14.44,16.69Z"/><path class="cls-1" d="M27.88,15.86a1.38,1.38,0,0,1-1.35-1.19c-.22-.86-.16-1.82-.4-1.83-.07,0-.15.06-.27.21s-2,2.5-3.23,2.5h0c-.56,0-.68-.59-.56-1.32l0-.11c.29-1.33,1.45-2.82,3-2.82h.06a2.41,2.41,0,0,1,1.21.35.74.74,0,0,1,.45-.2c.22,0,.38.2.39.7A13.12,13.12,0,0,0,27.32,14c.15.78.55,1.09,1.1,1.1h0c1.3,0,3.34-1.69,4.34-2.81a.25.25,0,0,1,.19-.09h0c.1,0,.16,0,.14.16a.55.55,0,0,1-.16.26c-1.18,1.28-3.51,3.21-5.06,3.21ZM26.06,12a1.08,1.08,0,0,0-.63-.21h0a2.83,2.83,0,0,0-2.3,2c-.12.55-.08.8.16.8h0C23.92,14.67,25.78,12.59,26.06,12Z"/><path class="cls-1" d="M32.59,18.53c-.53,0-.47-.63-.47-1.05a25.08,25.08,0,0,1,.6-5.05A41.36,41.36,0,0,1,37.06,1a1.42,1.42,0,0,1,1-.8c.21,0,.33.16.25.51a3.53,3.53,0,0,1-.64,1.25A31.15,31.15,0,0,0,33.5,12.5a24.64,24.64,0,0,0-.59,4.63c1.24-2.69,3-6.38,5-6.4h0c1.21,0,1.66,1.36,1.34,2.93l0,.07c.33-.15,3-1.13,4.12-1.51l.2,0c.15,0,.22.07.2.15a.25.25,0,0,1-.18.16c-.84.33-3.75,1.42-4.47,1.75-.94,2.61-2.85,3.66-4,3.66a.88.88,0,0,1-.77-.32.57.57,0,0,1-.08-.49c.16-.74,1.29-1.93,4-3.05l.08-.33c.27-1.3-.1-2.16-.79-2.16a1,1,0,0,0-.29,0c-1.73.51-3.26,4.07-4,5.85-.15.36-.3,1.08-.72,1.08Zm5.58-4c-2.09.94-2.94,1.84-3,2.3a.23.23,0,0,0,.17.31h.08A4.21,4.21,0,0,0,38.17,14.55Z"/><path class="cls-1" d="M42.51,16.35a8.67,8.67,0,0,1,.22-2,7.79,7.79,0,0,1,.75-2.19.5.5,0,0,1,.43-.21c.29,0,.59.18.54.42l0,.11a10.51,10.51,0,0,0-.8,2.44c-.2.93-.26,1.74,0,1.74a.32.32,0,0,0,.2-.08c1-.76,3.57-5.09,5-6.25a2.34,2.34,0,0,1,1.32-.64c.72,0,1,.89.66,2.47,0,.2-.1.4-.15.63l-.15.59c-.17.79-.36,2,0,2,.14,0,.36-.16.69-.6.67-.93,1.8-2.87,3.11-2.9h0c1.48,0,1.51,2.39,3.14,2.39.77,0,1.89-.53,3.69-2.08a.15.15,0,0,1,.13-.06c.12,0,.25.13.23.22a.11.11,0,0,1-.07.08c-2.27,1.84-3.71,2.45-4.67,2.45-1.89,0-2-2.32-2.92-2.32a1.31,1.31,0,0,0-.83.44c-.81.74-1.62,2.31-2.24,2.88a1.11,1.11,0,0,1-.73.31.72.72,0,0,1-.74-.57,6.44,6.44,0,0,1,.23-2.46l.13-.62c.33-1.53.24-2.11-.09-2.11a1,1,0,0,0-.47.21c-1.09.82-3.62,5.19-5.09,6.4a1.34,1.34,0,0,1-.82.37C42.78,17.41,42.53,17,42.51,16.35Zm1.48-6v0a.85.85,0,0,1,.8-.68.56.56,0,0,1,.57.7v0a.86.86,0,0,1-.81.66A.58.58,0,0,1,44,10.35Z"/><path class="cls-1" d="M72.55,20.44a4.06,4.06,0,0,0,2-1.87A19.05,19.05,0,0,0,76.25,15c-1.14-1.21-1.68-2-1.6-2.3,0-.08.11-.13.3-.13a3.64,3.64,0,0,1,.5.05c.24,0,.47,0,.71,0s.63,0,.93,0c.18-.56.34-1.1.47-1.61.25-1,.44-1.77.56-2.3.23-1.12.41-2.28.54-3.47a10.82,10.82,0,0,0-.09-3.16A1.88,1.88,0,0,0,77.29.46L77,.44a2.89,2.89,0,0,0-1.76.83,10.06,10.06,0,0,0-1.9,2.26,13.72,13.72,0,0,0-1.45,2.89,6.68,6.68,0,0,0-.27,1,3.88,3.88,0,0,0-.06,1.5.89.89,0,0,0,.49.67A2.4,2.4,0,0,0,73,9.7c.12,0,.18.07.17.14a.18.18,0,0,1-.12.1,2.67,2.67,0,0,1-.56.06,1.65,1.65,0,0,1-1.77-1.06,4.15,4.15,0,0,1,0-2c0-.18.14-.56.3-1.15a9.59,9.59,0,0,1,1.21-2.37A10,10,0,0,1,74.43,1a4.34,4.34,0,0,1,2.62-1c2,.08,2.92,1.72,2.72,4.91a28.52,28.52,0,0,1-.53,3.69c-.27,1.25-.59,2.54-1,3.85a10.63,10.63,0,0,0,1.22-.36,13.85,13.85,0,0,0,3.61-1.94,21,21,0,0,0,5.26-5.71A11.6,11.6,0,0,0,90,1c.09-.46.07-.75-.08-.85a1.65,1.65,0,0,1,.64,2s-.08.3-.2.81a9.77,9.77,0,0,1-1.54,2.67,20.73,20.73,0,0,1-3.4,3.7,19.82,19.82,0,0,1-4.45,3,12.3,12.3,0,0,1-2.87,1c-.28.87-.49,1.49-.64,1.83a14.27,14.27,0,0,0,4.29,2.8,5.54,5.54,0,0,0,2.14.46c.12,0,.4,0,.86-.05a2.52,2.52,0,0,0,1.51-1.09l0,0s0,0,0,.06a2.8,2.8,0,0,1-2.85,2.12,3.79,3.79,0,0,1-.81-.09,13.78,13.78,0,0,1-5.56-3.35,14.07,14.07,0,0,1-1.6,3A3.9,3.9,0,0,1,74,20.17a3.32,3.32,0,0,1-1.32.27Zm4.31-7.08c-.27,0-.55,0-.82,0a3.4,3.4,0,0,0,.55.76Z"/><path class="cls-1" d="M97.92,16.67c-.1-.62.42-3,.62-4.77.15-1.22-.32-1.13-1.41-1.62-.29,1.21-2.36,5.09-4.32,5.55a1.33,1.33,0,0,1-.28,0c-.53,0-1-.39-1.12-1.26s-.1-2-.34-2c-.07,0-.15.07-.27.23s-2.2,2.92-3.41,2.92h0c-.53,0-.65-.68-.48-1.51.3-1.43,1.53-3.39,3.13-3.39a2.34,2.34,0,0,1,1.28.42.67.67,0,0,1,.42-.2c.21,0,.37.21.36.79a13.41,13.41,0,0,0,.11,2.07c.08.69.32,1,.64,1.07l.12,0c1.43,0,3.58-3.92,3.78-4.87V10.1c-.51-.24-1.15-.72-1.11-1.39l0-.14A.69.69,0,0,1,96.35,8c.5,0,1.07.48.94,1.6,1.28.7,2.5.58,2.28,2.29-.27,2.28-1.14,5.36-.13,5.36h.09c.06,0,.08.05.07.1a.18.18,0,0,1-.11.12,1.47,1.47,0,0,1-.51.08A1,1,0,0,1,97.92,16.67Zm-6.87-5a1,1,0,0,0-.68-.25c-1.11,0-2.28,1.75-2.48,2.69-.07.35,0,.58.22.58h0C88.85,14.67,90.75,12.29,91.05,11.7Zm5.46-3a.12.12,0,0,0-.12.09c0,.1.08.32.49.6C96.89,8.93,96.65,8.73,96.51,8.73Z"/><path class="cls-1" d="M102.54,20c-.36,0-.37-.61-.38-1a25,25,0,0,1,.63-6.24,41.46,41.46,0,0,1,3.7-10.39c.22-.43.45-.6.63-.6s.4.32.41.78a1.73,1.73,0,0,1-.27.64,30.56,30.56,0,0,0-3.75,9.89c-.11.5-.18.9-.26,1.39A11.94,11.94,0,0,0,108,10.61c.08-.11.16-.17.22-.17s.33.53.28.78a.46.46,0,0,1-.08.16,16.11,16.11,0,0,1-5.12,3.68,3.49,3.49,0,0,0,3,1.79c1.65,0,4-1.15,7.17-4.59a.33.33,0,0,1,.23-.11c.13,0,.23.09.2.19a.13.13,0,0,1,0,.1c-3.5,3.81-6.07,5.13-7.92,5.13A3.55,3.55,0,0,1,103,16a8.47,8.47,0,0,0,.07,3.23.92.92,0,0,1,0,.37.49.49,0,0,1-.52.42Z"/><path class="cls-1" d="M113.1,13.77a11.3,11.3,0,0,1,.4-1.46c.07-.21.36-.31.62-.31s.52.1.48.31v0a12.22,12.22,0,0,0-.54,1.7c-.27,1.3,0,1.83.7,1.83,1.13,0,3.28-1.59,5.18-3.58a.39.39,0,0,1,.23-.12.14.14,0,0,1,.15.17.29.29,0,0,1-.09.16c-2,2.25-4.6,4.11-6.08,4.11C113.17,16.61,112.67,15.8,113.1,13.77Zm.88-3.22a.78.78,0,0,1,.77-.62.46.46,0,0,1,.48.62.77.77,0,0,1-.75.63A.48.48,0,0,1,114,10.55Z"/></g></g></svg>