<svg id="Layer_1" data-name="Layer 1" xmlns="http://www.w3.org/2000/svg" width="123" height="27" viewBox="0 0 123 27"><title>GlobalArtboard 1</title><path d="M29.68,26.29C27.42,24.54,32.18,5.74,36.47,5a39.7,39.7,0,0,0-4.89,11.24C41.25,10,42.84,4.6,40.51,3.11c-4.57-2.93-20.08,6.1-14.9,9.1.15.06,0,.34-.21.28a2.2,2.2,0,0,1-1.51-2.15c.05-5.23,12.28-10,16.51-8.18,5.18,2.16.39,9-5.4,13-1.18.8-2.42,1.51-3.63,2.23A89,89,0,0,0,29.68,26.29Z"/><path d="M41.31,21.5v-.07c.32-1.31.78-3.59,1.16-5.22a.83.83,0,0,1,.63-.24c.28,0,.52.1.52.29v0c-.08.4-.72,2.56-.83,3.12l0,.12c.42-.86,2.21-4.17,3.47-4.6a1,1,0,0,1,.33-.07c1,0,1,2.13,2,2.13a2.07,2.07,0,0,0,1.25-.71.28.28,0,0,1,.15-.08c.08,0,.12.09.09.19a.26.26,0,0,1-.14.19c-.94.95-1.57,1.28-2,1.28C46.78,17.88,46.72,16,46,16a.58.58,0,0,0-.21.05c-1.1.43-2.79,4-3.25,5.44-.14.39-.39.85-.81.85S41.18,22.07,41.31,21.5Z"/><path d="M57.53,20.49a1.66,1.66,0,0,1-1.63-1.44c-.27-1-.19-2.19-.48-2.2-.08,0-.18.07-.32.25s-2.37,3-3.9,3h0c-.67,0-.82-.71-.67-1.59l0-.14c.35-1.61,1.75-3.4,3.58-3.4h.08a3,3,0,0,1,1.45.42.93.93,0,0,1,.55-.25c.27,0,.46.25.47.86a15.53,15.53,0,0,0,.21,2.27c.17.94.66,1.31,1.32,1.32h0c1.57,0,4-2,5.24-3.39a.3.3,0,0,1,.23-.11h0c.12,0,.19.06.17.19a.7.7,0,0,1-.19.32c-1.43,1.54-4.24,3.87-6.11,3.87Zm-2.19-4.61a1.32,1.32,0,0,0-.76-.26h0a3.42,3.42,0,0,0-2.78,2.47c-.14.67-.09,1,.19,1h0C52.75,19.05,55,16.54,55.34,15.88Z"/><path d="M63.22,23.71c-.64,0-.58-.76-.58-1.27a30.63,30.63,0,0,1,.73-6.09A49.67,49.67,0,0,1,68.61,2.53a1.72,1.72,0,0,1,1.19-1c.26,0,.4.19.31.61a4.28,4.28,0,0,1-.78,1.51c-2.14,3-4,8.13-5,12.76A30.41,30.41,0,0,0,63.6,22c1.5-3.24,3.59-7.7,6.06-7.72h0c1.46,0,2,1.64,1.62,3.54l0,.08c.41-.18,3.65-1.37,5-1.83l.25,0c.17,0,.25.09.23.19a.31.31,0,0,1-.22.19c-1,.39-4.52,1.71-5.39,2.11C70,21.7,67.69,23,66.34,23a1.07,1.07,0,0,1-.93-.38.71.71,0,0,1-.09-.6c.19-.89,1.55-2.32,4.82-3.67l.1-.41c.33-1.56-.12-2.6-1-2.6a1,1,0,0,0-.34.06c-2.09.61-3.94,4.9-4.82,7.05-.18.44-.37,1.3-.87,1.3Zm6.72-4.8c-2.52,1.13-3.54,2.22-3.65,2.78a.28.28,0,0,0,.2.37h.1A5.06,5.06,0,0,0,69.94,18.91Z"/><path d="M75.18,21.08a10.92,10.92,0,0,1,.27-2.44A9.25,9.25,0,0,1,76.36,16a.6.6,0,0,1,.52-.26c.34,0,.71.22.65.51l0,.13a12.4,12.4,0,0,0-1,2.94c-.24,1.12-.31,2.1.06,2.1a.37.37,0,0,0,.25-.1c1.23-.92,4.3-6.14,6-7.54A2.85,2.85,0,0,1,84.43,13c.87,0,1.2,1.07.79,3,0,.24-.11.48-.17.75l-.18.71c-.21,1-.44,2.45,0,2.45.17,0,.44-.21.83-.73.8-1.12,2.17-3.47,3.75-3.5h0c1.78,0,1.82,2.88,3.79,2.88.93,0,2.28-.64,4.45-2.51A.21.21,0,0,1,97.9,16c.15,0,.31.16.28.27s0,.06-.07.09c-2.74,2.22-4.49,3-5.65,3-2.28,0-2.38-2.81-3.51-2.81a1.64,1.64,0,0,0-1,.54c-1,.89-2,2.79-2.7,3.48a1.34,1.34,0,0,1-.88.36.87.87,0,0,1-.89-.68,7.36,7.36,0,0,1,.28-3l.15-.74c.39-1.85.29-2.55-.11-2.55a1.07,1.07,0,0,0-.57.26c-1.31,1-4.37,6.25-6.14,7.72a1.61,1.61,0,0,1-1,.44C75.52,22.36,75.21,21.8,75.18,21.08ZM77,13.84v0A1,1,0,0,1,78,13a.68.68,0,0,1,.69.84v.05a1,1,0,0,1-1,.79A.7.7,0,0,1,77,13.84Z"/></svg>