<?xml version="1.0" encoding="UTF-8"?>
<svg xmlns="http://www.w3.org/2000/svg" xmlns:xlink="http://www.w3.org/1999/xlink" width="48pt" height="48pt" viewBox="0 0 48 48" version="1.1">
<g id="surface1">
<path style=" stroke:none;fill-rule:nonzero;fill:rgb(100%,100%,100%);fill-opacity:1;" d="M 27.75 22.96875 L 31.6875 22.96875 L 31.6875 19.40625 L 27.75 19.40625 Z M 23.0625 22.96875 L 27 22.96875 L 27 19.40625 L 23.0625 19.40625 Z M 18.46875 22.96875 L 22.40625 22.96875 L 22.40625 19.40625 L 18.46875 19.40625 Z M 13.875 22.96875 L 17.71875 22.96875 L 17.71875 19.40625 L 13.875 19.40625 Z M 9.1875 22.96875 L 13.125 22.96875 L 13.125 19.40625 L 9.1875 19.40625 Z M 13.875 18.65625 L 17.71875 18.65625 L 17.71875 15.09375 L 13.875 15.09375 Z M 18.46875 18.65625 L 22.40625 18.65625 L 22.40625 15.09375 L 18.46875 15.09375 Z M 23.0625 18.65625 L 27 18.65625 L 27 15.09375 L 23.0625 15.09375 Z M 23.0625 14.34375 L 27 14.34375 L 27 10.78125 L 23.0625 10.78125 Z M 44.25 21.375 C 44.25 21.375 42.5625 19.78125 39.09375 20.34375 C 38.71875 17.625 35.8125 16.03125 35.8125 16.03125 C 35.8125 16.03125 33.09375 19.3125 35.0625 22.96875 C 34.5 23.25 33.5625 23.625 32.15625 23.625 L 6.375 23.625 C 5.90625 25.40625 5.90625 37.21875 18.84375 37.21875 C 28.125 37.21875 35.0625 32.90625 38.34375 25.03125 C 43.21875 25.40625 44.25 21.375 44.25 21.375 Z M 44.25 21.375 "/>
</g>
</svg>
